# xmcd
#
# Track frame offsets:
#	150
#	13048
#	23655
#	37445
#	51999
#	64377
#	78453
#	90640
#	100910
#	114377
#	124552
#	136382
#	157450
#	172481
#	183757
#	194360
#	207472
#	221011
#	234957
#	247500
#
# Disc length: 3487 seconds
# Revision: 3
# Processed by: cddbd v1.5.2PL0 Copyright (c) Steve Scherf et al.
# Submitted via: dBpowerAMP V12.0
#
DISCID=220d9d14
DTITLE=Various Artist - Nothing But The Blues (Disc3)
DYEAR=2012
DGENRE=Blues
TTITLE0=Muddy Waters - Got My Mojo Working
TTITLE1=Sonny Boy Williamson - Fattening Frogs For Snakes
TTITLE2=Lightnin' Hopkins - Mojo Hand
TTITLE3=Ruth Brown - 5-10-15 Hours
TTITLE4=Little Walter - Juke
TTITLE5=Otis Rush - I Can't Quit You Baby
TTITLE6=Memphis Slim - Mother Earth
TTITLE7=Junior Wells - Messin' With The Kid
TTITLE8=Guitar Slim - The Things That I Used To Do
TTITLE9=Billy Boy Arnold - I Ain't Got You
TTITLE10=Memphis Minnie - Looking The World Over
TTITLE11=Dinah Washington - Back Water Blues (Live)
TTITLE12=Blind Willie Johnson - Dark Was The Night
TTITLE13=Lazy Lester - I'm A Lover,Not A Fighter
TTITLE14=Robert Johnson - Love In Vain
TTITLE15=Sippie Wallace - I'm A Mighty Tight Woman
TTITLE16=Skip James - Devil's Got My Woman
TTITLE17=Victoria Spivey - Dirty T.B. Blues
TTITLE18=Mississippi John Hurt - Candy Man Blues
TTITLE19=Lead Belly - Midnight Special
EXTD=
EXTT0=
EXTT1=
EXTT2=
EXTT3=
EXTT4=
EXTT5=
EXTT6=
EXTT7=
EXTT8=
EXTT9=
EXTT10=
EXTT11=
EXTT12=
EXTT13=
EXTT14=
EXTT15=
EXTT16=
EXTT17=
EXTT18=
EXTT19=
PLAYORDER=
